<mxfile host="app.diagrams.net" agent="Mozilla/5.0 (Windows NT 10.0; Win64; x64; rv:133.0) Gecko/20100101 Firefox/133.0" version="25.0.1">
  <diagram name="Page-1" id="4q_AKJ5pmmHCmK-4070s">
    <mxGraphModel grid="1" page="1" gridSize="10" guides="1" tooltips="1" connect="1" arrows="1" fold="1" pageScale="1" pageWidth="827" pageHeight="1169" math="0" shadow="0">
      <root>
        <mxCell id="0" />
        <mxCell id="1" parent="0" />
        <mxCell id="0tqZ6lOcKrUtqcf013ES-3" value="" style="rounded=1;arcSize=10;dashed=0;fillColor=none;gradientColor=none;strokeWidth=2;" vertex="1" parent="1">
          <mxGeometry x="360" y="260" width="820" height="650" as="geometry" />
        </mxCell>
        <mxCell id="0tqZ6lOcKrUtqcf013ES-1" value="" style="rounded=1;arcSize=10;dashed=0;fillColor=none;gradientColor=none;strokeWidth=2;" vertex="1" parent="1">
          <mxGeometry x="250" y="110" width="1200" height="940" as="geometry" />
        </mxCell>
        <mxCell id="0tqZ6lOcKrUtqcf013ES-2" value="" style="dashed=0;html=1;shape=mxgraph.aws3.cloud;fillColor=#F58536;gradientColor=none;dashed=0;" vertex="1" parent="1">
          <mxGeometry x="320" y="90" width="52" height="36" as="geometry" />
        </mxCell>
        <mxCell id="0tqZ6lOcKrUtqcf013ES-4" value="" style="dashed=0;html=1;shape=mxgraph.aws3.virtual_private_cloud;fillColor=#F58536;gradientColor=none;dashed=0;" vertex="1" parent="1">
          <mxGeometry x="460" y="240" width="52" height="36" as="geometry" />
        </mxCell>
        <mxCell id="0tqZ6lOcKrUtqcf013ES-7" value="Public subnet" style="points=[[0,0],[0.25,0],[0.5,0],[0.75,0],[1,0],[1,0.25],[1,0.5],[1,0.75],[1,1],[0.75,1],[0.5,1],[0.25,1],[0,1],[0,0.75],[0,0.5],[0,0.25]];outlineConnect=0;gradientColor=none;html=1;whiteSpace=wrap;fontSize=12;fontStyle=0;container=1;pointerEvents=0;collapsible=0;recursiveResize=0;shape=mxgraph.aws4.group;grIcon=mxgraph.aws4.group_security_group;grStroke=0;strokeColor=#7AA116;fillColor=#F2F6E8;verticalAlign=top;align=left;spacingLeft=30;fontColor=#248814;dashed=0;" vertex="1" parent="1">
          <mxGeometry x="400" y="300" width="290" height="570" as="geometry" />
        </mxCell>
        <mxCell id="0tqZ6lOcKrUtqcf013ES-9" value="Classic Load Balancer" style="outlineConnect=0;dashed=0;verticalLabelPosition=bottom;verticalAlign=top;align=center;html=1;shape=mxgraph.aws3.classic_load_balancer;fillColor=#F58534;gradientColor=none;" vertex="1" parent="0tqZ6lOcKrUtqcf013ES-7">
          <mxGeometry x="90" y="23" width="69" height="72" as="geometry" />
        </mxCell>
        <mxCell id="0tqZ6lOcKrUtqcf013ES-8" value="Application Load Balancer" style="outlineConnect=0;dashed=0;verticalLabelPosition=bottom;verticalAlign=top;align=center;html=1;shape=mxgraph.aws3.application_load_balancer;fillColor=#F58534;gradientColor=none;" vertex="1" parent="1">
          <mxGeometry x="500" y="549" width="69" height="72" as="geometry" />
        </mxCell>
        <mxCell id="0tqZ6lOcKrUtqcf013ES-12" value="Private subnet" style="points=[[0,0],[0.25,0],[0.5,0],[0.75,0],[1,0],[1,0.25],[1,0.5],[1,0.75],[1,1],[0.75,1],[0.5,1],[0.25,1],[0,1],[0,0.75],[0,0.5],[0,0.25]];outlineConnect=0;gradientColor=none;html=1;whiteSpace=wrap;fontSize=12;fontStyle=0;container=1;pointerEvents=0;collapsible=0;recursiveResize=0;shape=mxgraph.aws4.group;grIcon=mxgraph.aws4.group_security_group;grStroke=0;strokeColor=#00A4A6;fillColor=#E6F6F7;verticalAlign=top;align=left;spacingLeft=30;fontColor=#147EBA;dashed=0;" vertex="1" parent="1">
          <mxGeometry x="690" y="300" width="430" height="570" as="geometry" />
        </mxCell>
        <mxCell id="0tqZ6lOcKrUtqcf013ES-14" value="" style="rounded=0;whiteSpace=wrap;html=1;fillColor=none;dashed=1;" vertex="1" parent="0tqZ6lOcKrUtqcf013ES-12">
          <mxGeometry x="17" y="90" width="120" height="410" as="geometry" />
        </mxCell>
        <mxCell id="0tqZ6lOcKrUtqcf013ES-13" value="Amazon ECS" style="sketch=0;outlineConnect=0;fontColor=#232F3E;gradientColor=none;strokeColor=#ffffff;fillColor=#232F3E;dashed=0;verticalLabelPosition=middle;verticalAlign=bottom;align=center;html=1;whiteSpace=wrap;fontSize=10;fontStyle=1;spacing=3;shape=mxgraph.aws4.productIcon;prIcon=mxgraph.aws4.ecs;" vertex="1" parent="0tqZ6lOcKrUtqcf013ES-12">
          <mxGeometry x="47" y="460" width="60" height="90" as="geometry" />
        </mxCell>
        <mxCell id="0tqZ6lOcKrUtqcf013ES-15" value="Auth MS" style="sketch=0;outlineConnect=0;fontColor=#232F3E;gradientColor=none;strokeColor=#ffffff;fillColor=#232F3E;dashed=0;verticalLabelPosition=middle;verticalAlign=bottom;align=center;html=1;whiteSpace=wrap;fontSize=10;fontStyle=1;spacing=3;shape=mxgraph.aws4.productIcon;prIcon=mxgraph.aws4.fargate;" vertex="1" parent="0tqZ6lOcKrUtqcf013ES-12">
          <mxGeometry x="47" y="220" width="60" height="90" as="geometry" />
        </mxCell>
        <mxCell id="0tqZ6lOcKrUtqcf013ES-38" style="edgeStyle=orthogonalEdgeStyle;rounded=0;orthogonalLoop=1;jettySize=auto;html=1;" edge="1" parent="0tqZ6lOcKrUtqcf013ES-12" source="0tqZ6lOcKrUtqcf013ES-16" target="0tqZ6lOcKrUtqcf013ES-21">
          <mxGeometry relative="1" as="geometry">
            <Array as="points">
              <mxPoint x="214" y="420" />
              <mxPoint x="214" y="421" />
            </Array>
          </mxGeometry>
        </mxCell>
        <mxCell id="0tqZ6lOcKrUtqcf013ES-16" value="Search MS" style="sketch=0;outlineConnect=0;fontColor=#232F3E;gradientColor=none;strokeColor=#ffffff;fillColor=#232F3E;dashed=0;verticalLabelPosition=middle;verticalAlign=bottom;align=center;html=1;whiteSpace=wrap;fontSize=10;fontStyle=1;spacing=3;shape=mxgraph.aws4.productIcon;prIcon=mxgraph.aws4.fargate;" vertex="1" parent="0tqZ6lOcKrUtqcf013ES-12">
          <mxGeometry x="47" y="350" width="60" height="90" as="geometry" />
        </mxCell>
        <mxCell id="0tqZ6lOcKrUtqcf013ES-37" style="edgeStyle=orthogonalEdgeStyle;rounded=0;orthogonalLoop=1;jettySize=auto;html=1;" edge="1" parent="0tqZ6lOcKrUtqcf013ES-12" source="0tqZ6lOcKrUtqcf013ES-17" target="0tqZ6lOcKrUtqcf013ES-20">
          <mxGeometry relative="1" as="geometry">
            <Array as="points">
              <mxPoint x="210" y="130" />
              <mxPoint x="210" y="181" />
            </Array>
          </mxGeometry>
        </mxCell>
        <mxCell id="0tqZ6lOcKrUtqcf013ES-17" value="User MS" style="sketch=0;outlineConnect=0;fontColor=#232F3E;gradientColor=none;strokeColor=#ffffff;fillColor=#232F3E;dashed=0;verticalLabelPosition=middle;verticalAlign=bottom;align=center;html=1;whiteSpace=wrap;fontSize=10;fontStyle=1;spacing=3;shape=mxgraph.aws4.productIcon;prIcon=mxgraph.aws4.fargate;" vertex="1" parent="0tqZ6lOcKrUtqcf013ES-12">
          <mxGeometry x="47" y="100" width="60" height="90" as="geometry" />
        </mxCell>
        <mxCell id="0tqZ6lOcKrUtqcf013ES-20" value="PostgreSQL" style="sketch=0;outlineConnect=0;fontColor=#232F3E;gradientColor=none;fillColor=#C925D1;strokeColor=none;dashed=0;verticalLabelPosition=bottom;verticalAlign=top;align=center;html=1;fontSize=12;fontStyle=0;aspect=fixed;pointerEvents=1;shape=mxgraph.aws4.rds_postgresql_instance;" vertex="1" parent="0tqZ6lOcKrUtqcf013ES-12">
          <mxGeometry x="310" y="142" width="78" height="78" as="geometry" />
        </mxCell>
        <mxCell id="0tqZ6lOcKrUtqcf013ES-21" value="Document DB" style="sketch=0;outlineConnect=0;fontColor=#232F3E;gradientColor=none;fillColor=#C925D1;strokeColor=none;dashed=0;verticalLabelPosition=bottom;verticalAlign=top;align=center;html=1;fontSize=12;fontStyle=0;aspect=fixed;pointerEvents=1;shape=mxgraph.aws4.documentdb_elastic_clusters;" vertex="1" parent="0tqZ6lOcKrUtqcf013ES-12">
          <mxGeometry x="320" y="382" width="78" height="78" as="geometry" />
        </mxCell>
        <mxCell id="0tqZ6lOcKrUtqcf013ES-34" style="edgeStyle=orthogonalEdgeStyle;rounded=0;orthogonalLoop=1;jettySize=auto;html=1;" edge="1" parent="0tqZ6lOcKrUtqcf013ES-12" source="0tqZ6lOcKrUtqcf013ES-23" target="0tqZ6lOcKrUtqcf013ES-16">
          <mxGeometry relative="1" as="geometry">
            <Array as="points">
              <mxPoint x="160" y="295" />
              <mxPoint x="160" y="395" />
            </Array>
          </mxGeometry>
        </mxCell>
        <mxCell id="0tqZ6lOcKrUtqcf013ES-35" style="edgeStyle=orthogonalEdgeStyle;rounded=0;orthogonalLoop=1;jettySize=auto;html=1;" edge="1" parent="0tqZ6lOcKrUtqcf013ES-12" source="0tqZ6lOcKrUtqcf013ES-23" target="0tqZ6lOcKrUtqcf013ES-15">
          <mxGeometry relative="1" as="geometry">
            <Array as="points">
              <mxPoint x="160" y="295" />
              <mxPoint x="160" y="265" />
            </Array>
          </mxGeometry>
        </mxCell>
        <mxCell id="0tqZ6lOcKrUtqcf013ES-36" style="edgeStyle=orthogonalEdgeStyle;rounded=0;orthogonalLoop=1;jettySize=auto;html=1;" edge="1" parent="0tqZ6lOcKrUtqcf013ES-12" source="0tqZ6lOcKrUtqcf013ES-23" target="0tqZ6lOcKrUtqcf013ES-17">
          <mxGeometry relative="1" as="geometry">
            <Array as="points">
              <mxPoint x="160" y="295" />
              <mxPoint x="160" y="145" />
            </Array>
          </mxGeometry>
        </mxCell>
        <mxCell id="0tqZ6lOcKrUtqcf013ES-23" value="Amazon MQ" style="sketch=0;outlineConnect=0;fontColor=#232F3E;gradientColor=none;fillColor=#E7157B;strokeColor=none;dashed=0;verticalLabelPosition=bottom;verticalAlign=top;align=center;html=1;fontSize=12;fontStyle=0;aspect=fixed;pointerEvents=1;shape=mxgraph.aws4.mq_broker;" vertex="1" parent="0tqZ6lOcKrUtqcf013ES-12">
          <mxGeometry x="190" y="261" width="78" height="69" as="geometry" />
        </mxCell>
        <mxCell id="0tqZ6lOcKrUtqcf013ES-39" style="edgeStyle=orthogonalEdgeStyle;rounded=0;orthogonalLoop=1;jettySize=auto;html=1;" edge="1" parent="1" source="0tqZ6lOcKrUtqcf013ES-18" target="0tqZ6lOcKrUtqcf013ES-20">
          <mxGeometry relative="1" as="geometry" />
        </mxCell>
        <mxCell id="0tqZ6lOcKrUtqcf013ES-63" style="edgeStyle=orthogonalEdgeStyle;rounded=0;orthogonalLoop=1;jettySize=auto;html=1;entryX=0.5;entryY=0;entryDx=0;entryDy=0;" edge="1" parent="1" source="0tqZ6lOcKrUtqcf013ES-18" target="0tqZ6lOcKrUtqcf013ES-14">
          <mxGeometry relative="1" as="geometry" />
        </mxCell>
        <mxCell id="0tqZ6lOcKrUtqcf013ES-18" value="Admin Panel" style="sketch=0;points=[[0,0,0],[0.25,0,0],[0.5,0,0],[0.75,0,0],[1,0,0],[0,1,0],[0.25,1,0],[0.5,1,0],[0.75,1,0],[1,1,0],[0,0.25,0],[0,0.5,0],[0,0.75,0],[1,0.25,0],[1,0.5,0],[1,0.75,0]];outlineConnect=0;fontColor=#232F3E;fillColor=#ED7100;strokeColor=#ffffff;dashed=0;verticalLabelPosition=bottom;verticalAlign=top;align=center;html=1;fontSize=12;fontStyle=0;aspect=fixed;shape=mxgraph.aws4.resourceIcon;resIcon=mxgraph.aws4.ec2;" vertex="1" parent="1">
          <mxGeometry x="880" y="320" width="78" height="78" as="geometry" />
        </mxCell>
        <mxCell id="0tqZ6lOcKrUtqcf013ES-24" value="CloudWatch" style="sketch=0;points=[[0,0,0],[0.25,0,0],[0.5,0,0],[0.75,0,0],[1,0,0],[0,1,0],[0.25,1,0],[0.5,1,0],[0.75,1,0],[1,1,0],[0,0.25,0],[0,0.5,0],[0,0.75,0],[1,0.25,0],[1,0.5,0],[1,0.75,0]];points=[[0,0,0],[0.25,0,0],[0.5,0,0],[0.75,0,0],[1,0,0],[0,1,0],[0.25,1,0],[0.5,1,0],[0.75,1,0],[1,1,0],[0,0.25,0],[0,0.5,0],[0,0.75,0],[1,0.25,0],[1,0.5,0],[1,0.75,0]];outlineConnect=0;fontColor=#232F3E;fillColor=#E7157B;strokeColor=#ffffff;dashed=0;verticalLabelPosition=bottom;verticalAlign=top;align=center;html=1;fontSize=12;fontStyle=0;aspect=fixed;shape=mxgraph.aws4.resourceIcon;resIcon=mxgraph.aws4.cloudwatch_2;" vertex="1" parent="1">
          <mxGeometry x="1280" y="766" width="78" height="78" as="geometry" />
        </mxCell>
        <mxCell id="0tqZ6lOcKrUtqcf013ES-28" value="" style="edgeStyle=orthogonalEdgeStyle;rounded=0;orthogonalLoop=1;jettySize=auto;html=1;" edge="1" parent="1" source="0tqZ6lOcKrUtqcf013ES-25" target="0tqZ6lOcKrUtqcf013ES-27">
          <mxGeometry relative="1" as="geometry" />
        </mxCell>
        <mxCell id="0tqZ6lOcKrUtqcf013ES-25" value="ECR" style="sketch=0;points=[[0,0,0],[0.25,0,0],[0.5,0,0],[0.75,0,0],[1,0,0],[0,1,0],[0.25,1,0],[0.5,1,0],[0.75,1,0],[1,1,0],[0,0.25,0],[0,0.5,0],[0,0.75,0],[1,0.25,0],[1,0.5,0],[1,0.75,0]];outlineConnect=0;fontColor=#232F3E;fillColor=#ED7100;strokeColor=#ffffff;dashed=0;verticalLabelPosition=bottom;verticalAlign=top;align=center;html=1;fontSize=12;fontStyle=0;aspect=fixed;shape=mxgraph.aws4.resourceIcon;resIcon=mxgraph.aws4.ecr;" vertex="1" parent="1">
          <mxGeometry x="460" y="940" width="78" height="78" as="geometry" />
        </mxCell>
        <mxCell id="0tqZ6lOcKrUtqcf013ES-26" value="ECS" style="sketch=0;points=[[0,0,0],[0.25,0,0],[0.5,0,0],[0.75,0,0],[1,0,0],[0,1,0],[0.25,1,0],[0.5,1,0],[0.75,1,0],[1,1,0],[0,0.25,0],[0,0.5,0],[0,0.75,0],[1,0.25,0],[1,0.5,0],[1,0.75,0]];outlineConnect=0;fontColor=#232F3E;fillColor=#ED7100;strokeColor=#ffffff;dashed=0;verticalLabelPosition=bottom;verticalAlign=top;align=center;html=1;fontSize=12;fontStyle=0;aspect=fixed;shape=mxgraph.aws4.resourceIcon;resIcon=mxgraph.aws4.ecs;" vertex="1" parent="1">
          <mxGeometry x="731" y="940" width="78" height="78" as="geometry" />
        </mxCell>
        <mxCell id="0tqZ6lOcKrUtqcf013ES-29" value="" style="edgeStyle=orthogonalEdgeStyle;rounded=0;orthogonalLoop=1;jettySize=auto;html=1;" edge="1" parent="1" source="0tqZ6lOcKrUtqcf013ES-27" target="0tqZ6lOcKrUtqcf013ES-26">
          <mxGeometry relative="1" as="geometry" />
        </mxCell>
        <mxCell id="0tqZ6lOcKrUtqcf013ES-27" value="Task Definition" style="sketch=0;outlineConnect=0;fontColor=#232F3E;gradientColor=none;fillColor=#ED7100;strokeColor=none;dashed=0;verticalLabelPosition=bottom;verticalAlign=top;align=center;html=1;fontSize=12;fontStyle=0;aspect=fixed;pointerEvents=1;shape=mxgraph.aws4.ecs_task;" vertex="1" parent="1">
          <mxGeometry x="620" y="955" width="37" height="48" as="geometry" />
        </mxCell>
        <mxCell id="0tqZ6lOcKrUtqcf013ES-30" style="edgeStyle=orthogonalEdgeStyle;rounded=0;orthogonalLoop=1;jettySize=auto;html=1;entryX=0.55;entryY=0.978;entryDx=0;entryDy=0;entryPerimeter=0;" edge="1" parent="1" source="0tqZ6lOcKrUtqcf013ES-26" target="0tqZ6lOcKrUtqcf013ES-13">
          <mxGeometry relative="1" as="geometry" />
        </mxCell>
        <mxCell id="0tqZ6lOcKrUtqcf013ES-31" style="edgeStyle=orthogonalEdgeStyle;rounded=0;orthogonalLoop=1;jettySize=auto;html=1;entryX=0;entryY=0.5;entryDx=0;entryDy=0;entryPerimeter=0;" edge="1" parent="1" source="0tqZ6lOcKrUtqcf013ES-13" target="0tqZ6lOcKrUtqcf013ES-24">
          <mxGeometry relative="1" as="geometry" />
        </mxCell>
        <mxCell id="0tqZ6lOcKrUtqcf013ES-41" style="edgeStyle=orthogonalEdgeStyle;rounded=0;orthogonalLoop=1;jettySize=auto;html=1;entryX=1;entryY=0.5;entryDx=0;entryDy=0;entryPerimeter=0;" edge="1" parent="1" source="0tqZ6lOcKrUtqcf013ES-18" target="0tqZ6lOcKrUtqcf013ES-9">
          <mxGeometry relative="1" as="geometry" />
        </mxCell>
        <mxCell id="0tqZ6lOcKrUtqcf013ES-42" style="edgeStyle=orthogonalEdgeStyle;rounded=0;orthogonalLoop=1;jettySize=auto;html=1;entryX=1;entryY=0.5;entryDx=0;entryDy=0;entryPerimeter=0;" edge="1" parent="1" source="0tqZ6lOcKrUtqcf013ES-17" target="0tqZ6lOcKrUtqcf013ES-8">
          <mxGeometry relative="1" as="geometry" />
        </mxCell>
        <mxCell id="0tqZ6lOcKrUtqcf013ES-43" style="edgeStyle=orthogonalEdgeStyle;rounded=0;orthogonalLoop=1;jettySize=auto;html=1;entryX=1;entryY=0.5;entryDx=0;entryDy=0;entryPerimeter=0;" edge="1" parent="1" source="0tqZ6lOcKrUtqcf013ES-15" target="0tqZ6lOcKrUtqcf013ES-8">
          <mxGeometry relative="1" as="geometry" />
        </mxCell>
        <mxCell id="0tqZ6lOcKrUtqcf013ES-44" style="edgeStyle=orthogonalEdgeStyle;rounded=0;orthogonalLoop=1;jettySize=auto;html=1;entryX=1;entryY=0.5;entryDx=0;entryDy=0;entryPerimeter=0;" edge="1" parent="1" source="0tqZ6lOcKrUtqcf013ES-16" target="0tqZ6lOcKrUtqcf013ES-8">
          <mxGeometry relative="1" as="geometry" />
        </mxCell>
        <mxCell id="0tqZ6lOcKrUtqcf013ES-45" value="Amplify" style="sketch=0;points=[[0,0,0],[0.25,0,0],[0.5,0,0],[0.75,0,0],[1,0,0],[0,1,0],[0.25,1,0],[0.5,1,0],[0.75,1,0],[1,1,0],[0,0.25,0],[0,0.5,0],[0,0.75,0],[1,0.25,0],[1,0.5,0],[1,0.75,0]];outlineConnect=0;fontColor=#232F3E;fillColor=#DD344C;strokeColor=#ffffff;dashed=0;verticalLabelPosition=bottom;verticalAlign=top;align=center;html=1;fontSize=12;fontStyle=0;aspect=fixed;shape=mxgraph.aws4.resourceIcon;resIcon=mxgraph.aws4.amplify;" vertex="1" parent="1">
          <mxGeometry x="480" y="130" width="78" height="78" as="geometry" />
        </mxCell>
        <mxCell id="0tqZ6lOcKrUtqcf013ES-46" value="S3" style="sketch=0;points=[[0,0,0],[0.25,0,0],[0.5,0,0],[0.75,0,0],[1,0,0],[0,1,0],[0.25,1,0],[0.5,1,0],[0.75,1,0],[1,1,0],[0,0.25,0],[0,0.5,0],[0,0.75,0],[1,0.25,0],[1,0.5,0],[1,0.75,0]];outlineConnect=0;fontColor=#232F3E;fillColor=#7AA116;strokeColor=#ffffff;dashed=0;verticalLabelPosition=bottom;verticalAlign=top;align=center;html=1;fontSize=12;fontStyle=0;aspect=fixed;shape=mxgraph.aws4.resourceIcon;resIcon=mxgraph.aws4.s3;" vertex="1" parent="1">
          <mxGeometry x="1280" y="507" width="78" height="78" as="geometry" />
        </mxCell>
        <mxCell id="0tqZ6lOcKrUtqcf013ES-47" style="edgeStyle=orthogonalEdgeStyle;rounded=0;orthogonalLoop=1;jettySize=auto;html=1;entryX=0;entryY=0.5;entryDx=0;entryDy=0;entryPerimeter=0;" edge="1" parent="1" source="0tqZ6lOcKrUtqcf013ES-17" target="0tqZ6lOcKrUtqcf013ES-46">
          <mxGeometry relative="1" as="geometry">
            <Array as="points">
              <mxPoint x="900" y="430" />
              <mxPoint x="900" y="546" />
            </Array>
          </mxGeometry>
        </mxCell>
        <mxCell id="0tqZ6lOcKrUtqcf013ES-49" style="edgeStyle=orthogonalEdgeStyle;rounded=0;orthogonalLoop=1;jettySize=auto;html=1;entryX=0.5;entryY=0;entryDx=0;entryDy=0;entryPerimeter=0;fillColor=#e1d5e7;strokeColor=#9673a6;" edge="1" parent="1" source="0tqZ6lOcKrUtqcf013ES-45" target="0tqZ6lOcKrUtqcf013ES-46">
          <mxGeometry relative="1" as="geometry" />
        </mxCell>
        <mxCell id="0tqZ6lOcKrUtqcf013ES-50" value="DevOps" style="shape=mxgraph.signs.tech.computer;html=1;pointerEvents=1;fillColor=#000000;strokeColor=none;verticalLabelPosition=bottom;verticalAlign=top;align=center;" vertex="1" parent="1">
          <mxGeometry x="100" y="930" width="98" height="98" as="geometry" />
        </mxCell>
        <mxCell id="0tqZ6lOcKrUtqcf013ES-51" style="edgeStyle=orthogonalEdgeStyle;rounded=0;orthogonalLoop=1;jettySize=auto;html=1;entryX=0;entryY=0.5;entryDx=0;entryDy=0;entryPerimeter=0;" edge="1" parent="1" source="0tqZ6lOcKrUtqcf013ES-50" target="0tqZ6lOcKrUtqcf013ES-25">
          <mxGeometry relative="1" as="geometry" />
        </mxCell>
        <mxCell id="0tqZ6lOcKrUtqcf013ES-52" value="" style="shape=image;html=1;verticalAlign=top;verticalLabelPosition=bottom;labelBackgroundColor=#ffffff;imageAspect=0;aspect=fixed;image=https://cdn1.iconfinder.com/data/icons/unicons-line-vol-3/24/docker-128.png" vertex="1" parent="1">
          <mxGeometry x="108" y="920" width="90" height="90" as="geometry" />
        </mxCell>
        <mxCell id="0tqZ6lOcKrUtqcf013ES-54" style="edgeStyle=orthogonalEdgeStyle;rounded=0;orthogonalLoop=1;jettySize=auto;html=1;entryX=0;entryY=0.5;entryDx=0;entryDy=0;entryPerimeter=0;fillColor=#e1d5e7;strokeColor=#9673a6;" edge="1" parent="1" source="0tqZ6lOcKrUtqcf013ES-45" target="0tqZ6lOcKrUtqcf013ES-8">
          <mxGeometry relative="1" as="geometry">
            <Array as="points">
              <mxPoint x="320" y="169" />
              <mxPoint x="320" y="585" />
            </Array>
          </mxGeometry>
        </mxCell>
        <mxCell id="0tqZ6lOcKrUtqcf013ES-55" value="Client" style="fontColor=#0066CC;verticalAlign=top;verticalLabelPosition=bottom;labelPosition=center;align=center;html=1;outlineConnect=0;fillColor=#CCCCCC;strokeColor=#6881B3;gradientColor=none;gradientDirection=north;strokeWidth=2;shape=mxgraph.networks.terminal;" vertex="1" parent="1">
          <mxGeometry x="-40" y="442" width="80" height="65" as="geometry" />
        </mxCell>
        <mxCell id="0tqZ6lOcKrUtqcf013ES-56" style="edgeStyle=orthogonalEdgeStyle;rounded=0;orthogonalLoop=1;jettySize=auto;html=1;entryX=0;entryY=0.5;entryDx=0;entryDy=0;entryPerimeter=0;fillColor=#d5e8d4;strokeColor=#82b366;" edge="1" parent="1" source="0tqZ6lOcKrUtqcf013ES-55" target="0tqZ6lOcKrUtqcf013ES-45">
          <mxGeometry relative="1" as="geometry">
            <Array as="points">
              <mxPoint x="140" y="474" />
              <mxPoint x="140" y="169" />
            </Array>
          </mxGeometry>
        </mxCell>
        <mxCell id="0tqZ6lOcKrUtqcf013ES-57" style="edgeStyle=orthogonalEdgeStyle;rounded=0;orthogonalLoop=1;jettySize=auto;html=1;entryX=0;entryY=0.5;entryDx=0;entryDy=0;entryPerimeter=0;fillColor=#d5e8d4;strokeColor=#82b366;" edge="1" parent="1" source="0tqZ6lOcKrUtqcf013ES-55" target="0tqZ6lOcKrUtqcf013ES-8">
          <mxGeometry relative="1" as="geometry">
            <Array as="points">
              <mxPoint x="140" y="474" />
              <mxPoint x="140" y="585" />
            </Array>
          </mxGeometry>
        </mxCell>
        <mxCell id="0tqZ6lOcKrUtqcf013ES-58" value="Admin" style="shape=mxgraph.signs.tech.computer;html=1;pointerEvents=1;fillColor=#000000;strokeColor=none;verticalLabelPosition=bottom;verticalAlign=top;align=center;" vertex="1" parent="1">
          <mxGeometry x="100" y="710" width="98" height="98" as="geometry" />
        </mxCell>
        <mxCell id="0tqZ6lOcKrUtqcf013ES-59" style="edgeStyle=orthogonalEdgeStyle;rounded=0;orthogonalLoop=1;jettySize=auto;html=1;entryX=0;entryY=0.5;entryDx=0;entryDy=0;entryPerimeter=0;fillColor=#dae8fc;strokeColor=#6c8ebf;" edge="1" parent="1" source="0tqZ6lOcKrUtqcf013ES-58" target="0tqZ6lOcKrUtqcf013ES-9">
          <mxGeometry relative="1" as="geometry">
            <Array as="points">
              <mxPoint x="180" y="359" />
            </Array>
          </mxGeometry>
        </mxCell>
        <mxCell id="0tqZ6lOcKrUtqcf013ES-60" value="AWS Endpoint" style="outlineConnect=0;dashed=0;verticalLabelPosition=bottom;verticalAlign=top;align=center;html=1;shape=mxgraph.aws3.endpoints;fillColor=#F58536;gradientColor=none;" vertex="1" parent="1">
          <mxGeometry x="910" y="947" width="69" height="72" as="geometry" />
        </mxCell>
        <mxCell id="0tqZ6lOcKrUtqcf013ES-61" style="edgeStyle=orthogonalEdgeStyle;rounded=0;orthogonalLoop=1;jettySize=auto;html=1;entryX=0.5;entryY=1;entryDx=0;entryDy=0;entryPerimeter=0;" edge="1" parent="1" source="0tqZ6lOcKrUtqcf013ES-52" target="0tqZ6lOcKrUtqcf013ES-60">
          <mxGeometry relative="1" as="geometry">
            <Array as="points">
              <mxPoint x="153" y="1110" />
              <mxPoint x="944" y="1110" />
            </Array>
          </mxGeometry>
        </mxCell>
        <mxCell id="0tqZ6lOcKrUtqcf013ES-62" style="edgeStyle=orthogonalEdgeStyle;rounded=0;orthogonalLoop=1;jettySize=auto;html=1;entryX=0.5;entryY=0;entryDx=0;entryDy=0;entryPerimeter=0;" edge="1" parent="1" source="0tqZ6lOcKrUtqcf013ES-60" target="0tqZ6lOcKrUtqcf013ES-18">
          <mxGeometry relative="1" as="geometry">
            <Array as="points">
              <mxPoint x="1400" y="983" />
              <mxPoint x="1400" y="210" />
              <mxPoint x="919" y="210" />
            </Array>
          </mxGeometry>
        </mxCell>
      </root>
    </mxGraphModel>
  </diagram>
</mxfile>
